# xmcd
#
# Track frame offsets:
# 150
# 28097
# 54033
# 89982
# 107037
# 135129
# 165484
# 194735
# 220256
# 247020
# 281334
# 312009
#
# Disc length: 4456 seconds
#
# Revision: 0
# Processed by: cddbd v1.4PL0 Copyright (c) Steve Scherf et al.
# Submitted via: Audion 3.0.2 (http://www.panic.com/audion/)
#
DISCID=a511660c
DTITLE=barcelona - The Loft Club
DYEAR=1900
DGENRE=
TTITLE0=nick rodes
TTITLE1=playgroup
TTITLE2=dot allison
TTITLE3=kiko
TTITLE4=undo
TTITLE5=paul nazca
TTITLE6=david carretta
TTITLE7=the hacker
TTITLE8=vince warson
TTITLE9=circulation
TTITLE10=the youngsters
TTITLE11=chicks on speed
EXTD=
EXTT0=
EXTT1=
EXTT2=
EXTT3=
EXTT4=
EXTT5=
EXTT6=
EXTT7=
EXTT8=
EXTT9=
EXTT10=
EXTT11=
PLAYORDER=
